<?xml version="1.0" encoding="utf-8"?>
<!-- Generator: Adobe Illustrator 16.0.3, SVG Export Plug-In . SVG Version: 6.00 Build 0)  -->
<!DOCTYPE svg PUBLIC "-//W3C//DTD SVG 1.1//EN" "http://www.w3.org/Graphics/SVG/1.1/DTD/svg11.dtd">
<svg version="1.1" id="Layer_1" xmlns="http://www.w3.org/2000/svg" xmlns:xlink="http://www.w3.org/1999/xlink" x="0px" y="0px"
	 width="750px" height="656px" viewBox="0 0 750 656" style="enable-background:new 0 0 750 656;" xml:space="preserve">
<style type="text/css">
<![CDATA[
	.st0{fill:#fff;}
]]>
</style>
<g>
	<path class="st0" d="M608,160.5381V73.9004l0,0L410.8242,0L0,72.9209l0,0v181.0996l142,52.6787v68.4746L0.5234,399H0v182.792
		L198.0664,656L608,583.501V419.8223l142-24.7891V213h-0.4746L608,160.5381z M352,441.2891V301.3828l375-66.1035v140.1123
		L352,441.2891z M212,162.083l373-66.1064v140.1133l-373,66.1045V162.083z M692.5439,217.2441L608,232.1641v-46.623
		L692.5439,217.2441z M408.8438,24.1611l144.0684,53.8008l-352.5527,62.2148L56.2275,86.1279L408.8438,24.1611z M23,98.916
		l165,61.4561v138.8838l-165-61.457V98.916z M198.3467,328.2305L328,305.3086v133.248l-163-61.457v-61.6221L198.3467,328.2305z
		 M150.9082,397.1465l144.209,54.0791l-94.7578,16.7227L56.1641,413.874L150.9082,397.1465z M23,565.5674V426.6865l165,61.457
		v138.8809L23,565.5674z M585,563.8584l-373,66.1055V489.8516l373-65.8965V563.8584z"/>
</g>
</svg>
